<svg xmlns="http://www.w3.org/2000/svg" viewBox="0 0 80 30" fill="white">
  <path d="M12.5,0C5.6,0,0,6.7,0,15s5.6,15,12.5,15c6.9,0,12.5-6.7,12.5-15S19.4,0,12.5,0 M12.5,25C8.4,25,5,20.5,5,15S8.4,5,12.5,5S20,9.5,20,15S16.6,25,12.5,25"/>
  <path d="M54.9,0c-6.9,0-12.5,6.7-12.5,15s5.6,15,12.5,15c6.9,0,12.5-6.7,12.5-15S61.8,0,54.9,0 M54.9,25c-4.1,0-7.5-4.5-7.5-10s3.4-10,7.5-10s7.5,4.5,7.5,10S59,25,54.9,25"/>
  <polygon points="33.7,0 28.7,0 28.7,30 33.7,30"/>
  <polygon points="80,0 75,0 75,30 80,30"/>
</svg>

